<?xml version="1.0" encoding="UTF-8"?><svg xmlns="http://www.w3.org/2000/svg" width="241" height="37" viewBox="0 0 241 37"><defs><style>.d{fill:#c80700;}.e{fill:#1a191a;}</style></defs><g id="a"/><g id="b"><g id="c"><g><path class="d" d="M41.37,9.09V28.46h-3.88V9.09h3.88Z"/><path class="d" d="M61.76,28.46h-3.88l-8.8-13.29v13.29h-3.88V9.06h3.88l8.8,13.32V9.06h3.88V28.46Z"/><path class="d" d="M82.99,9.09l-7.1,19.37h-4.72l-7.1-19.37h4.16l5.33,15.4,5.3-15.4h4.13Z"/><path class="d" d="M89.21,12.22v4.86h6.52v3.08h-6.52v5.13h7.35v3.16h-11.24V9.06h11.24v3.16h-7.35Z"/><path class="d" d="M103.13,27.96c-1.08-.46-1.94-1.13-2.57-2-.63-.87-.95-1.9-.97-3.08h4.16c.06,.8,.34,1.42,.85,1.89,.51,.46,1.21,.69,2.1,.69s1.62-.22,2.14-.65c.52-.43,.78-1,.78-1.71,0-.57-.18-1.05-.53-1.42-.35-.37-.79-.66-1.32-.87-.53-.21-1.25-.45-2.18-.71-1.26-.37-2.28-.74-3.07-1.1-.79-.36-1.46-.91-2.03-1.64-.56-.73-.85-1.71-.85-2.93,0-1.15,.29-2.15,.86-3,.57-.85,1.38-1.5,2.41-1.96,1.04-.45,2.22-.68,3.55-.68,2,0,3.62,.49,4.87,1.46,1.25,.97,1.94,2.33,2.07,4.07h-4.27c-.04-.67-.32-1.22-.85-1.65s-1.23-.65-2.1-.65c-.76,0-1.36,.19-1.82,.58-.45,.39-.68,.95-.68,1.69,0,.52,.17,.95,.51,1.29,.34,.34,.77,.62,1.28,.83,.51,.21,1.23,.46,2.15,.74,1.26,.37,2.28,.74,3.08,1.11,.8,.37,1.48,.93,2.05,1.66,.57,.74,.86,1.71,.86,2.91,0,1.04-.27,2-.8,2.89-.54,.89-1.32,1.6-2.36,2.12-1.04,.53-2.27,.79-3.69,.79-1.35,0-2.57-.23-3.65-.69Z"/><path class="d" d="M130.17,9.09v3.14h-5.16V28.46h-3.88V12.22h-5.16v-3.14h14.21Z"/><path class="d" d="M136.99,27.37c-1.52-.85-2.72-2.03-3.61-3.54-.89-1.51-1.33-3.21-1.33-5.12s.44-3.58,1.33-5.09c.89-1.51,2.09-2.69,3.61-3.54,1.52-.85,3.18-1.28,4.99-1.28s3.5,.43,5.01,1.28c1.51,.85,2.7,2.03,3.58,3.54,.88,1.51,1.32,3.2,1.32,5.09s-.44,3.61-1.32,5.12c-.88,1.51-2.08,2.69-3.59,3.54-1.52,.85-3.18,1.28-4.99,1.28s-3.48-.43-4.99-1.28Zm8.08-2.98c.89-.53,1.58-1.28,2.08-2.26,.5-.98,.75-2.12,.75-3.41s-.25-2.43-.75-3.4c-.5-.97-1.19-1.72-2.08-2.23-.89-.52-1.91-.78-3.08-.78s-2.2,.26-3.09,.78c-.9,.52-1.6,1.26-2.1,2.23-.5,.97-.75,2.1-.75,3.4s.25,2.43,.75,3.41c.5,.98,1.2,1.73,2.1,2.26,.9,.53,1.93,.79,3.09,.79s2.19-.26,3.08-.79Z"/><path class="d" d="M164.77,28.46l-4.27-7.55h-1.83v7.55h-3.88V9.09h7.27c1.5,0,2.78,.26,3.83,.79s1.85,1.24,2.37,2.14c.53,.9,.79,1.9,.79,3.01,0,1.28-.37,2.43-1.11,3.46-.74,1.03-1.84,1.73-3.3,2.12l4.63,7.85h-4.5Zm-6.11-10.46h3.25c1.05,0,1.84-.25,2.36-.76,.52-.51,.78-1.22,.78-2.12s-.26-1.58-.78-2.07c-.52-.49-1.3-.74-2.36-.74h-3.25v5.69Z"/><path class="e" d="M186.06,14.91c-.44-.81-1.05-1.43-1.83-1.86s-1.68-.64-2.72-.64c-1.15,0-2.16,.26-3.05,.78-.89,.52-1.58,1.26-2.08,2.22s-.75,2.07-.75,3.33,.25,2.42,.76,3.39c.51,.96,1.22,1.7,2.12,2.22,.91,.52,1.96,.78,3.16,.78,1.48,0,2.69-.39,3.64-1.18,.94-.79,1.56-1.88,1.86-3.29h-6.66v-2.97h10.49v3.39c-.26,1.35-.81,2.6-1.67,3.75-.85,1.15-1.95,2.07-3.29,2.76-1.34,.69-2.84,1.04-4.51,1.04-1.87,0-3.56-.42-5.06-1.26-1.51-.84-2.69-2.01-3.55-3.51s-1.29-3.2-1.29-5.11,.43-3.61,1.29-5.12c.86-1.51,2.04-2.68,3.55-3.52,1.51-.84,3.19-1.26,5.04-1.26,2.18,0,4.08,.53,5.69,1.6,1.61,1.06,2.72,2.56,3.33,4.48h-4.47Z"/><path class="e" d="M205.76,24.76h-7.71l-1.28,3.69h-4.08l6.97-19.4h4.52l6.97,19.4h-4.11l-1.28-3.69Zm-1.05-3.11l-2.8-8.1-2.8,8.1h5.61Z"/><path class="e" d="M226.93,9.09v3.14h-5.16V28.46h-3.88V12.22h-5.16v-3.14h14.21Z"/><path class="e" d="M233.65,12.22v4.86h6.52v3.08h-6.52v5.13h7.35v3.16h-11.24V9.06h11.24v3.16h-7.35Z"/></g><g><polygon class="e" points="15.94 37.41 14.38 36.7 14.38 1.16 15.94 .04 15.94 37.41"/><polygon class="e" points="12.4 35.38 10.84 34.66 10.84 3.19 12.4 2.07 12.4 35.38"/><polygon class="e" points="8.7 33.35 7.15 32.63 7.15 5.22 8.7 4.1 8.7 33.35"/><polygon class="e" points="5.16 31.2 3.6 30.48 3.6 7.38 5.16 6.25 5.16 31.2"/><polygon class="e" points="1.56 29.3 0 28.16 0 9.27 1.56 8.14 1.56 29.3"/><path class="d" d="M17.73,0V37.38l15.75-8.94V8.99L17.73,0Zm7.12,31.36l-5.39,2.55v-6.36l5.39-1.42v5.23Zm0-6.65l-5.39,1.12v-6.36h5.39v5.24Zm0-6.65l-5.39-.31v-6.36l5.39,1.44v5.23Zm0-6.64l-5.39-1.75V3.31l5.39,2.88v5.23Zm4.42,12.37l-3.52,.73v-5.05h3.52v4.32Zm0-10.94l-3.52-1.14V6.67l3.52,1.88v4.31Zm3.07,5.65l-2.48-.14v-4.18l2.48,.66v3.66Z"/></g></g></g></svg>