<?xml version="1.0" encoding="UTF-8"?><svg id="a" xmlns="http://www.w3.org/2000/svg" width="240.43" height="37.05" viewBox="0 0 240.43 37.05"><defs><style>.d{fill:#c80700;}.e{fill:#1c1c1c;}</style></defs><g id="b"><g id="c"><g><path class="e" d="M40.8,8.81V28.18h-3.88V8.81h3.88Z"/><path class="e" d="M61.2,28.18h-3.88l-8.8-13.29v13.29h-3.88V8.78h3.88l8.8,13.32V8.78h3.88V28.18Z"/><path class="e" d="M82.42,8.81l-7.1,19.37h-4.72l-7.1-19.37h4.16l5.33,15.4,5.3-15.4h4.13Z"/><path class="e" d="M88.64,11.94v4.86h6.52v3.08h-6.52v5.13h7.35v3.16h-11.24V8.78h11.24v3.16h-7.35Z"/><path class="e" d="M102.56,27.68c-1.08-.46-1.94-1.13-2.57-2-.63-.87-.95-1.9-.97-3.08h4.16c.06,.8,.34,1.42,.85,1.89,.51,.46,1.21,.69,2.1,.69s1.62-.22,2.14-.65c.52-.43,.78-1,.78-1.71,0-.57-.18-1.05-.53-1.42-.35-.37-.79-.66-1.32-.87-.53-.21-1.25-.45-2.18-.71-1.26-.37-2.28-.74-3.07-1.1-.79-.36-1.46-.91-2.03-1.64-.56-.73-.85-1.71-.85-2.93,0-1.15,.29-2.15,.86-3,.57-.85,1.38-1.5,2.41-1.96,1.04-.45,2.22-.68,3.55-.68,2,0,3.62,.49,4.87,1.46,1.25,.97,1.94,2.33,2.07,4.07h-4.27c-.04-.67-.32-1.22-.85-1.65s-1.23-.65-2.1-.65c-.76,0-1.36,.19-1.82,.58-.45,.39-.68,.95-.68,1.69,0,.52,.17,.95,.51,1.29,.34,.34,.77,.62,1.28,.83,.51,.21,1.23,.46,2.15,.74,1.26,.37,2.28,.74,3.08,1.11,.8,.37,1.48,.93,2.05,1.66,.57,.74,.86,1.71,.86,2.91,0,1.04-.27,2-.8,2.89-.54,.89-1.32,1.6-2.36,2.12-1.04,.53-2.27,.79-3.69,.79-1.35,0-2.57-.23-3.65-.69Z"/><path class="e" d="M129.6,8.81v3.14h-5.16V28.18h-3.88V11.94h-5.16v-3.14h14.21Z"/><path class="e" d="M136.43,27.09c-1.52-.85-2.72-2.03-3.61-3.54-.89-1.51-1.33-3.21-1.33-5.12s.44-3.58,1.33-5.09c.89-1.51,2.09-2.69,3.61-3.54,1.52-.85,3.18-1.28,4.99-1.28s3.5,.43,5.01,1.28c1.51,.85,2.7,2.03,3.58,3.54,.88,1.51,1.32,3.2,1.32,5.09s-.44,3.61-1.32,5.12c-.88,1.51-2.08,2.69-3.59,3.54-1.52,.85-3.18,1.28-4.99,1.28s-3.48-.43-4.99-1.28Zm8.08-2.98c.89-.53,1.58-1.28,2.08-2.26,.5-.98,.75-2.12,.75-3.41s-.25-2.43-.75-3.4c-.5-.97-1.19-1.72-2.08-2.23-.89-.52-1.91-.78-3.08-.78s-2.2,.26-3.09,.78c-.9,.52-1.6,1.26-2.1,2.23-.5,.97-.75,2.1-.75,3.4s.25,2.43,.75,3.41c.5,.98,1.2,1.73,2.1,2.26,.9,.53,1.93,.79,3.09,.79s2.19-.26,3.08-.79Z"/><path class="e" d="M164.2,28.18l-4.27-7.55h-1.83v7.55h-3.88V8.81h7.27c1.5,0,2.78,.26,3.83,.79s1.85,1.24,2.37,2.14c.53,.9,.79,1.9,.79,3.01,0,1.28-.37,2.43-1.11,3.46-.74,1.03-1.84,1.73-3.3,2.12l4.63,7.85h-4.5Zm-6.11-10.46h3.25c1.05,0,1.84-.25,2.36-.76,.52-.51,.78-1.22,.78-2.12s-.26-1.58-.78-2.07c-.52-.49-1.3-.74-2.36-.74h-3.25v5.69Z"/><path class="d" d="M185.49,14.63c-.44-.81-1.05-1.43-1.83-1.86s-1.68-.64-2.72-.64c-1.15,0-2.16,.26-3.05,.78-.89,.52-1.58,1.26-2.08,2.22s-.75,2.07-.75,3.33,.25,2.42,.76,3.39c.51,.96,1.22,1.7,2.12,2.22,.91,.52,1.96,.78,3.16,.78,1.48,0,2.69-.39,3.64-1.18,.94-.79,1.56-1.88,1.86-3.29h-6.66v-2.97h10.49v3.39c-.26,1.35-.81,2.6-1.67,3.75-.85,1.15-1.95,2.07-3.29,2.76-1.34,.69-2.84,1.04-4.51,1.04-1.87,0-3.56-.42-5.06-1.26-1.51-.84-2.69-2.01-3.55-3.51s-1.29-3.2-1.29-5.11,.43-3.61,1.29-5.12c.86-1.51,2.04-2.68,3.55-3.52,1.51-.84,3.19-1.26,5.04-1.26,2.18,0,4.08,.53,5.69,1.6,1.61,1.06,2.72,2.56,3.33,4.48h-4.47Z"/><path class="d" d="M205.19,24.49h-7.71l-1.28,3.69h-4.08l6.97-19.4h4.52l6.97,19.4h-4.11l-1.28-3.69Zm-1.05-3.11l-2.8-8.1-2.8,8.1h5.61Z"/><path class="d" d="M226.36,8.81v3.14h-5.16V28.18h-3.88V11.94h-5.16v-3.14h14.21Z"/><path class="d" d="M233.08,11.94v4.86h6.52v3.08h-6.52v5.13h7.35v3.16h-11.24V8.78h11.24v3.16h-7.35Z"/></g></g></g><g><polygon class="d" points="21.36 3.08 16.03 0 16.03 37.05 21.36 33.97 21.36 3.08"/><polygon class="d" points="22.68 33.21 27.37 30.5 27.37 6.55 22.68 3.84 22.68 33.21"/><polygon class="d" points="28.69 7.31 28.69 29.74 32.06 27.79 32.06 9.26 28.69 7.31"/><polygon class="e" points="10.7 3.08 16.03 0 16.03 37.05 10.7 33.97 10.7 3.08"/><polygon class="e" points="9.38 33.21 4.69 30.5 4.69 6.55 9.38 3.84 9.38 33.21"/><polygon class="e" points="3.37 7.31 3.37 29.74 0 27.79 0 9.26 3.37 7.31"/></g></svg>